# xmcd
#
# Track frame offsets: 
#        150
#        14411
#        28957
#        43883
#        64729
#        78698
#        96036
#        109387
#        122800
#        138931
#
# Disc length: 2059 seconds
#
# Revision: 0
# Processed by: cddbd v1.5.2PL0 Copyright (c) Steve Scherf et al.
# Submitted via: ExactAudioCopy v0.99pb4
#
DISCID=8e08090a
DTITLE=Weldon Henson - Tryin' To Get By
DYEAR=2007
DGENRE=Country
TTITLE0=Losin' Memories
TTITLE1=No Place In My Heart
TTITLE2=One Thing I'll Miss
TTITLE3=One Memory
TTITLE4=I'm Gone
TTITLE5=Truckin' Home
TTITLE6=Tryin' To Get By
TTITLE7=Moments That We Shared
TTITLE8=Not Wishing (For Love To Ever Go)
TTITLE9=Baby, Come Back Home
EXTD=
EXTT0=
EXTT1=
EXTT2=
EXTT3=
EXTT4=
EXTT5=
EXTT6=
EXTT7=
EXTT8=
EXTT9=
PLAYORDER=
